<mxfile host="65bd71144e">
    <diagram id="C5RBs43oDa-KdzZeNtuy" name="Page-1">
        <mxGraphModel dx="1414" dy="1867" grid="1" gridSize="10" guides="1" tooltips="1" connect="1" arrows="1" fold="1" page="1" pageScale="1" pageWidth="827" pageHeight="1169" math="0" shadow="0">
            <root>
                <mxCell id="WIyWlLk6GJQsqaUBKTNV-0"/>
                <mxCell id="WIyWlLk6GJQsqaUBKTNV-1" parent="WIyWlLk6GJQsqaUBKTNV-0"/>
                <mxCell id="hW5n2ouBTmK9XzmkuQqM-82" value="" style="endArrow=none;dashed=1;html=1;rounded=0;" parent="WIyWlLk6GJQsqaUBKTNV-1" edge="1">
                    <mxGeometry width="50" height="50" relative="1" as="geometry">
                        <mxPoint x="54" y="1410" as="sourcePoint"/>
                        <mxPoint x="699" y="1410" as="targetPoint"/>
                    </mxGeometry>
                </mxCell>
                <mxCell id="hW5n2ouBTmK9XzmkuQqM-84" value="&quot;Méta&quot; Convertisseur à n pattes" style="swimlane;fontStyle=0;childLayout=stackLayout;horizontal=1;startSize=30;horizontalStack=0;resizeParent=1;resizeParentMax=0;resizeLast=0;collapsible=1;marginBottom=0;whiteSpace=wrap;html=1;" parent="WIyWlLk6GJQsqaUBKTNV-1" vertex="1">
                    <mxGeometry x="94" y="1490" width="260" height="180" as="geometry"/>
                </mxCell>
                <mxCell id="hW5n2ouBTmK9XzmkuQqM-85" value="(P_i)i : List[Variable]" style="text;strokeColor=none;fillColor=none;align=left;verticalAlign=middle;spacingLeft=4;spacingRight=4;overflow=hidden;points=[[0,0.5],[1,0.5]];portConstraint=eastwest;rotatable=0;whiteSpace=wrap;html=1;" parent="hW5n2ouBTmK9XzmkuQqM-84" vertex="1">
                    <mxGeometry y="30" width="260" height="30" as="geometry"/>
                </mxCell>
                <mxCell id="hW5n2ouBTmK9XzmkuQqM-86" value="(alpha_j)j : List[Parameter]" style="text;strokeColor=none;fillColor=none;align=left;verticalAlign=middle;spacingLeft=4;spacingRight=4;overflow=hidden;points=[[0,0.5],[1,0.5]];portConstraint=eastwest;rotatable=0;whiteSpace=wrap;html=1;" parent="hW5n2ouBTmK9XzmkuQqM-84" vertex="1">
                    <mxGeometry y="60" width="260" height="30" as="geometry"/>
                </mxCell>
                <mxCell id="hW5n2ouBTmK9XzmkuQqM-88" value="(Flow_i) : List[Flow]" style="text;strokeColor=none;fillColor=none;align=left;verticalAlign=middle;spacingLeft=4;spacingRight=4;overflow=hidden;points=[[0,0.5],[1,0.5]];portConstraint=eastwest;rotatable=0;whiteSpace=wrap;html=1;" parent="hW5n2ouBTmK9XzmkuQqM-84" vertex="1">
                    <mxGeometry y="90" width="260" height="30" as="geometry"/>
                </mxCell>
                <mxCell id="hW5n2ouBTmK9XzmkuQqM-91" value="Flow_i.F = P_i" style="text;strokeColor=none;fillColor=none;align=left;verticalAlign=middle;spacingLeft=4;spacingRight=4;overflow=hidden;points=[[0,0.5],[1,0.5]];portConstraint=eastwest;rotatable=0;whiteSpace=wrap;html=1;" parent="hW5n2ouBTmK9XzmkuQqM-84" vertex="1">
                    <mxGeometry y="120" width="260" height="30" as="geometry"/>
                </mxCell>
                <mxCell id="hW5n2ouBTmK9XzmkuQqM-92" value="Équations linéaires entre les P_i et alpha_j" style="text;strokeColor=none;fillColor=none;align=left;verticalAlign=middle;spacingLeft=4;spacingRight=4;overflow=hidden;points=[[0,0.5],[1,0.5]];portConstraint=eastwest;rotatable=0;whiteSpace=wrap;html=1;" parent="hW5n2ouBTmK9XzmkuQqM-84" vertex="1">
                    <mxGeometry y="150" width="260" height="30" as="geometry"/>
                </mxCell>
                <mxCell id="hW5n2ouBTmK9XzmkuQqM-93" value="P_i représente la production dans l'énergie i, P_i &amp;lt; 0 si consommation d'énergie i" style="text;html=1;strokeColor=none;fillColor=none;align=center;verticalAlign=middle;whiteSpace=wrap;rounded=0;" parent="WIyWlLk6GJQsqaUBKTNV-1" vertex="1">
                    <mxGeometry x="419" y="1565" width="355" height="75" as="geometry"/>
                </mxCell>
                <mxCell id="hW5n2ouBTmK9XzmkuQqM-100" value="&lt;h1&gt;Pour aller plus loin&lt;br&gt;&lt;/h1&gt;" style="text;html=1;strokeColor=none;fillColor=none;spacing=5;spacingTop=-20;whiteSpace=wrap;overflow=hidden;rounded=0;align=center;" parent="WIyWlLk6GJQsqaUBKTNV-1" vertex="1">
                    <mxGeometry x="324" y="1430" width="250" height="40" as="geometry"/>
                </mxCell>
                <mxCell id="0" value="" style="group" parent="WIyWlLk6GJQsqaUBKTNV-1" vertex="1" connectable="0">
                    <mxGeometry x="581" y="-440" width="719" height="480" as="geometry"/>
                </mxCell>
                <mxCell id="hW5n2ouBTmK9XzmkuQqM-79" value="&lt;h1&gt;Ports and models&lt;br&gt;&lt;/h1&gt;" style="text;html=1;strokeColor=none;fillColor=none;spacing=5;spacingTop=-20;whiteSpace=wrap;overflow=hidden;rounded=0;" parent="0" vertex="1">
                    <mxGeometry x="119" width="250" height="40" as="geometry"/>
                </mxCell>
                <mxCell id="92" value="WeeklyMaximalProduction : Model" style="swimlane;fontStyle=0;childLayout=stackLayout;horizontal=1;startSize=30;horizontalStack=0;resizeParent=1;resizeParentMax=0;resizeLast=0;collapsible=1;marginBottom=0;whiteSpace=wrap;html=1;fillColor=#CCFFCC;fontColor=#000000;" parent="0" vertex="1">
                    <mxGeometry x="219" y="70" width="230" height="120" as="geometry"/>
                </mxCell>
                <mxCell id="94" value="ub : Parameter" style="text;strokeColor=none;fillColor=none;align=left;verticalAlign=middle;spacingLeft=4;spacingRight=4;overflow=hidden;points=[[0,0.5],[1,0.5]];portConstraint=eastwest;rotatable=0;whiteSpace=wrap;html=1;" parent="92" vertex="1">
                    <mxGeometry y="30" width="230" height="30" as="geometry"/>
                </mxCell>
                <mxCell id="98" value="flow_ub : Flow" style="text;strokeColor=none;fillColor=none;align=left;verticalAlign=middle;spacingLeft=4;spacingRight=4;overflow=hidden;points=[[0,0.5],[1,0.5]];portConstraint=eastwest;rotatable=0;whiteSpace=wrap;html=1;" parent="92" vertex="1">
                    <mxGeometry y="60" width="230" height="30" as="geometry"/>
                </mxCell>
                <mxCell id="100" value="flow_ub.f.sum().time_sum() &amp;lt;= ub" style="text;strokeColor=none;fillColor=none;align=left;verticalAlign=middle;spacingLeft=4;spacingRight=4;overflow=hidden;points=[[0,0.5],[1,0.5]];portConstraint=eastwest;rotatable=0;whiteSpace=wrap;html=1;" parent="92" vertex="1">
                    <mxGeometry y="90" width="230" height="30" as="geometry"/>
                </mxCell>
                <mxCell id="1" value="" style="group" parent="WIyWlLk6GJQsqaUBKTNV-1" vertex="1" connectable="0">
                    <mxGeometry x="162.5" y="20" width="396.1764705882353" height="330" as="geometry"/>
                </mxCell>
                <mxCell id="hW5n2ouBTmK9XzmkuQqM-36" value="File &quot;network.txt&quot;" style="swimlane;fontStyle=0;childLayout=stackLayout;horizontal=1;startSize=30;horizontalStack=0;resizeParent=1;resizeParentMax=0;resizeLast=0;collapsible=1;marginBottom=0;whiteSpace=wrap;html=1;container=0;fillColor=#CCCCFF;" parent="1" vertex="1">
                    <mxGeometry x="87.4964705882353" y="60" width="270" height="330" as="geometry"/>
                </mxCell>
                <mxCell id="hW5n2ouBTmK9XzmkuQqM-40" value="e: Node" style="text;strokeColor=none;fillColor=none;align=left;verticalAlign=middle;spacingLeft=4;spacingRight=4;overflow=hidden;points=[[0,0.5],[1,0.5]];portConstraint=eastwest;rotatable=0;whiteSpace=wrap;html=1;container=0;" parent="hW5n2ouBTmK9XzmkuQqM-36" vertex="1">
                    <mxGeometry y="30" width="270" height="30" as="geometry"/>
                </mxCell>
                <mxCell id="hW5n2ouBTmK9XzmkuQqM-41" value="gas, nuc_1, nuc_2 : Production" style="text;strokeColor=none;fillColor=none;align=left;verticalAlign=middle;spacingLeft=4;spacingRight=4;overflow=hidden;points=[[0,0.5],[1,0.5]];portConstraint=eastwest;rotatable=0;whiteSpace=wrap;html=1;container=0;" parent="hW5n2ouBTmK9XzmkuQqM-36" vertex="1">
                    <mxGeometry y="60" width="270" height="30" as="geometry"/>
                </mxCell>
                <mxCell id="hW5n2ouBTmK9XzmkuQqM-44" value="demand_e : Demand" style="text;strokeColor=none;fillColor=none;align=left;verticalAlign=middle;spacingLeft=4;spacingRight=4;overflow=hidden;points=[[0,0.5],[1,0.5]];portConstraint=eastwest;rotatable=0;whiteSpace=wrap;html=1;container=0;" parent="hW5n2ouBTmK9XzmkuQqM-36" vertex="1">
                    <mxGeometry y="90" width="270" height="30" as="geometry"/>
                </mxCell>
                <mxCell id="109" value="nuc_mod :&amp;nbsp;&lt;span style=&quot;text-align: center;&quot;&gt;WeeklyMaximalProduction&lt;/span&gt;" style="text;strokeColor=none;fillColor=none;align=left;verticalAlign=middle;spacingLeft=4;spacingRight=4;overflow=hidden;points=[[0,0.5],[1,0.5]];portConstraint=eastwest;rotatable=0;whiteSpace=wrap;html=1;container=0;" parent="hW5n2ouBTmK9XzmkuQqM-36" vertex="1">
                    <mxGeometry y="120" width="270" height="30" as="geometry"/>
                </mxCell>
                <mxCell id="hW5n2ouBTmK9XzmkuQqM-47" value="e.flow_n gas.flow_p" style="text;strokeColor=none;fillColor=none;align=left;verticalAlign=middle;spacingLeft=4;spacingRight=4;overflow=hidden;points=[[0,0.5],[1,0.5]];portConstraint=eastwest;rotatable=0;whiteSpace=wrap;html=1;container=0;" parent="hW5n2ouBTmK9XzmkuQqM-36" vertex="1">
                    <mxGeometry y="150" width="270" height="30" as="geometry"/>
                </mxCell>
                <mxCell id="118" value="e.flow_n nuc_1.flow_p" style="text;strokeColor=none;fillColor=none;align=left;verticalAlign=middle;spacingLeft=4;spacingRight=4;overflow=hidden;points=[[0,0.5],[1,0.5]];portConstraint=eastwest;rotatable=0;whiteSpace=wrap;html=1;container=0;" parent="hW5n2ouBTmK9XzmkuQqM-36" vertex="1">
                    <mxGeometry y="180" width="270" height="30" as="geometry"/>
                </mxCell>
                <mxCell id="116" value="e.flow_n nuc_2.flow_p" style="text;strokeColor=none;fillColor=none;align=left;verticalAlign=middle;spacingLeft=4;spacingRight=4;overflow=hidden;points=[[0,0.5],[1,0.5]];portConstraint=eastwest;rotatable=0;whiteSpace=wrap;html=1;container=0;" parent="hW5n2ouBTmK9XzmkuQqM-36" vertex="1">
                    <mxGeometry y="210" width="270" height="30" as="geometry"/>
                </mxCell>
                <mxCell id="123" value="nuc_mod.flow_ub nuc_1.flow_p" style="text;strokeColor=none;fillColor=none;align=left;verticalAlign=middle;spacingLeft=4;spacingRight=4;overflow=hidden;points=[[0,0.5],[1,0.5]];portConstraint=eastwest;rotatable=0;whiteSpace=wrap;html=1;container=0;" parent="hW5n2ouBTmK9XzmkuQqM-36" vertex="1">
                    <mxGeometry y="240" width="270" height="30" as="geometry"/>
                </mxCell>
                <mxCell id="124" value="nuc_mod.flow_ub nuc_2.flow_p" style="text;strokeColor=none;fillColor=none;align=left;verticalAlign=middle;spacingLeft=4;spacingRight=4;overflow=hidden;points=[[0,0.5],[1,0.5]];portConstraint=eastwest;rotatable=0;whiteSpace=wrap;html=1;container=0;" parent="hW5n2ouBTmK9XzmkuQqM-36" vertex="1">
                    <mxGeometry y="270" width="270" height="30" as="geometry"/>
                </mxCell>
                <mxCell id="hW5n2ouBTmK9XzmkuQqM-48" value="e.flow_n demand_e.flow_d" style="text;strokeColor=none;fillColor=none;align=left;verticalAlign=middle;spacingLeft=4;spacingRight=4;overflow=hidden;points=[[0,0.5],[1,0.5]];portConstraint=eastwest;rotatable=0;whiteSpace=wrap;html=1;container=0;" parent="hW5n2ouBTmK9XzmkuQqM-36" vertex="1">
                    <mxGeometry y="300" width="270" height="30" as="geometry"/>
                </mxCell>
                <mxCell id="hW5n2ouBTmK9XzmkuQqM-80" value="&lt;h1&gt;Data&lt;br&gt;&lt;/h1&gt;" style="text;html=1;strokeColor=none;fillColor=none;spacing=5;spacingTop=-20;whiteSpace=wrap;overflow=hidden;rounded=0;align=center;container=0;" parent="1" vertex="1">
                    <mxGeometry x="143.38235294117646" width="143.38235294117646" height="40" as="geometry"/>
                </mxCell>
                <mxCell id="51" value="" style="group" parent="WIyWlLk6GJQsqaUBKTNV-1" vertex="1" connectable="0">
                    <mxGeometry x="250" y="-390" width="250" height="260" as="geometry"/>
                </mxCell>
                <mxCell id="50" value="" style="group" parent="51" vertex="1" connectable="0">
                    <mxGeometry y="80" width="220" height="180" as="geometry"/>
                </mxCell>
                <mxCell id="hW5n2ouBTmK9XzmkuQqM-59" value="E" style="ellipse;whiteSpace=wrap;html=1;aspect=fixed;" parent="50" vertex="1">
                    <mxGeometry y="50" width="80" height="80" as="geometry"/>
                </mxCell>
                <mxCell id="hW5n2ouBTmK9XzmkuQqM-62" value="" style="endArrow=classic;html=1;rounded=0;exitX=1;exitY=0;exitDx=0;exitDy=0;entryX=0;entryY=0.5;entryDx=0;entryDy=0;" parent="50" source="hW5n2ouBTmK9XzmkuQqM-59" target="hW5n2ouBTmK9XzmkuQqM-66" edge="1">
                    <mxGeometry width="50" height="50" relative="1" as="geometry">
                        <mxPoint x="177" y="32" as="sourcePoint"/>
                        <mxPoint x="120" y="20" as="targetPoint"/>
                    </mxGeometry>
                </mxCell>
                <mxCell id="hW5n2ouBTmK9XzmkuQqM-63" value="" style="endArrow=classic;html=1;rounded=0;entryX=1;entryY=1;entryDx=0;entryDy=0;exitX=0;exitY=0.5;exitDx=0;exitDy=0;" parent="50" source="hW5n2ouBTmK9XzmkuQqM-65" target="hW5n2ouBTmK9XzmkuQqM-59" edge="1">
                    <mxGeometry width="50" height="50" relative="1" as="geometry">
                        <mxPoint x="120" y="170" as="sourcePoint"/>
                        <mxPoint x="70" y="150" as="targetPoint"/>
                    </mxGeometry>
                </mxCell>
                <mxCell id="hW5n2ouBTmK9XzmkuQqM-65" value="Gas production" style="rounded=1;whiteSpace=wrap;html=1;" parent="50" vertex="1">
                    <mxGeometry x="130" y="150" width="90" height="30" as="geometry"/>
                </mxCell>
                <mxCell id="hW5n2ouBTmK9XzmkuQqM-66" value="Elec demand" style="rounded=1;whiteSpace=wrap;html=1;" parent="50" vertex="1">
                    <mxGeometry x="130" width="90" height="30" as="geometry"/>
                </mxCell>
                <mxCell id="105" value="Nuclear production 1" style="rounded=1;whiteSpace=wrap;html=1;" parent="50" vertex="1">
                    <mxGeometry x="130" y="60" width="90" height="30" as="geometry"/>
                </mxCell>
                <mxCell id="106" value="Nuclear production 2" style="rounded=1;whiteSpace=wrap;html=1;" parent="50" vertex="1">
                    <mxGeometry x="130" y="100" width="90" height="30" as="geometry"/>
                </mxCell>
                <mxCell id="107" value="" style="endArrow=classic;html=1;rounded=0;entryX=1;entryY=0.5;entryDx=0;entryDy=0;exitX=0;exitY=0.5;exitDx=0;exitDy=0;" parent="50" source="106" target="hW5n2ouBTmK9XzmkuQqM-59" edge="1">
                    <mxGeometry width="50" height="50" relative="1" as="geometry">
                        <mxPoint x="140" y="175" as="sourcePoint"/>
                        <mxPoint x="78.28427124746213" y="128.28427124746213" as="targetPoint"/>
                    </mxGeometry>
                </mxCell>
                <mxCell id="108" value="" style="endArrow=classic;html=1;rounded=0;entryX=1;entryY=0.5;entryDx=0;entryDy=0;exitX=0;exitY=0.5;exitDx=0;exitDy=0;" parent="50" source="105" target="hW5n2ouBTmK9XzmkuQqM-59" edge="1">
                    <mxGeometry width="50" height="50" relative="1" as="geometry">
                        <mxPoint x="140" y="125" as="sourcePoint"/>
                        <mxPoint x="90" y="100" as="targetPoint"/>
                    </mxGeometry>
                </mxCell>
                <mxCell id="11" value="&lt;font style=&quot;&quot;&gt;&lt;b style=&quot;&quot;&gt;&lt;font style=&quot;font-size: 24px;&quot;&gt;Data visualization&lt;/font&gt;&lt;br&gt;&lt;/b&gt;&lt;/font&gt;" style="text;html=1;strokeColor=none;fillColor=none;align=center;verticalAlign=middle;whiteSpace=wrap;rounded=0;" parent="WIyWlLk6GJQsqaUBKTNV-1" vertex="1">
                    <mxGeometry x="650" y="-20" width="320" height="50" as="geometry"/>
                </mxCell>
                <mxCell id="56" value="" style="group" parent="WIyWlLk6GJQsqaUBKTNV-1" vertex="1" connectable="0">
                    <mxGeometry x="710" y="50" width="200" height="220" as="geometry"/>
                </mxCell>
                <mxCell id="9" value="e" style="ellipse;whiteSpace=wrap;html=1;aspect=fixed;fillColor=#dae8fc;strokeColor=#6c8ebf;container=0;" parent="56" vertex="1">
                    <mxGeometry width="80" height="80" as="geometry"/>
                </mxCell>
                <mxCell id="10" value="flow_n" style="rounded=0;whiteSpace=wrap;html=1;fillColor=#dae8fc;strokeColor=#6c8ebf;container=0;" parent="56" vertex="1">
                    <mxGeometry x="15" y="80" width="50" height="30" as="geometry"/>
                </mxCell>
                <mxCell id="30" value="gas" style="rounded=1;whiteSpace=wrap;html=1;container=0;" parent="56" vertex="1">
                    <mxGeometry x="120" y="110" width="80" height="30" as="geometry"/>
                </mxCell>
                <mxCell id="84" style="edgeStyle=none;html=1;entryX=1;entryY=0.5;entryDx=0;entryDy=0;" parent="56" source="31" target="10" edge="1">
                    <mxGeometry relative="1" as="geometry"/>
                </mxCell>
                <mxCell id="31" value="flow_p" style="rounded=0;whiteSpace=wrap;html=1;fillColor=#dae8fc;strokeColor=#6c8ebf;container=0;" parent="56" vertex="1">
                    <mxGeometry x="135" y="80" width="50" height="30" as="geometry"/>
                </mxCell>
                <mxCell id="35" value="demand_e" style="rounded=1;whiteSpace=wrap;html=1;container=0;" parent="56" vertex="1">
                    <mxGeometry y="190" width="80" height="30" as="geometry"/>
                </mxCell>
                <mxCell id="85" style="edgeStyle=none;html=1;entryX=0.5;entryY=1;entryDx=0;entryDy=0;" parent="56" source="36" target="10" edge="1">
                    <mxGeometry relative="1" as="geometry"/>
                </mxCell>
                <mxCell id="36" value="flow_d" style="rounded=0;whiteSpace=wrap;html=1;fillColor=#dae8fc;strokeColor=#6c8ebf;container=0;" parent="56" vertex="1">
                    <mxGeometry x="15" y="160" width="50" height="30" as="geometry"/>
                </mxCell>
                <mxCell id="110" value="nuc_1" style="rounded=1;whiteSpace=wrap;html=1;container=0;" parent="56" vertex="1">
                    <mxGeometry x="120" y="190" width="80" height="30" as="geometry"/>
                </mxCell>
                <mxCell id="111" value="flow_p" style="rounded=0;whiteSpace=wrap;html=1;fillColor=#dae8fc;strokeColor=#6c8ebf;container=0;" parent="56" vertex="1">
                    <mxGeometry x="135" y="160" width="50" height="30" as="geometry"/>
                </mxCell>
                <mxCell id="119" style="edgeStyle=none;html=1;entryX=1;entryY=1;entryDx=0;entryDy=0;exitX=0;exitY=0.25;exitDx=0;exitDy=0;" parent="56" source="111" target="10" edge="1">
                    <mxGeometry relative="1" as="geometry">
                        <mxPoint x="145" y="105" as="sourcePoint"/>
                        <mxPoint x="75" y="105" as="targetPoint"/>
                    </mxGeometry>
                </mxCell>
                <mxCell id="103" value="&lt;i&gt;We model different nuclear plants and the total production of those plants is weekly bounded.&amp;nbsp;&lt;/i&gt;" style="text;html=1;strokeColor=#FFCCCC;fillColor=none;align=left;verticalAlign=middle;whiteSpace=wrap;rounded=0;dashed=1;dashPattern=1 1;strokeWidth=2;" parent="WIyWlLk6GJQsqaUBKTNV-1" vertex="1">
                    <mxGeometry x="80" y="-570" width="510" height="35" as="geometry"/>
                </mxCell>
                <mxCell id="104" value="min&amp;nbsp; production costs&lt;br&gt;s.t.&amp;nbsp; &amp;nbsp;sum(nuclear production) &amp;lt;= upper bound on nuclear production&lt;br&gt;&lt;span style=&quot;white-space: pre;&quot;&gt;&#9;&lt;/span&gt;balance at each node&lt;br&gt;&lt;span style=&quot;white-space: pre;&quot;&gt;&#9;&lt;/span&gt;production constraints" style="text;html=1;strokeColor=#CCCCFF;fillColor=none;align=left;verticalAlign=middle;whiteSpace=wrap;rounded=0;dashed=1;dashPattern=1 1;strokeWidth=2;" parent="WIyWlLk6GJQsqaUBKTNV-1" vertex="1">
                    <mxGeometry x="170" y="-470" width="375" height="70" as="geometry"/>
                </mxCell>
                <mxCell id="hW5n2ouBTmK9XzmkuQqM-81" value="&lt;h1&gt;Physical system&lt;br&gt;&lt;/h1&gt;" style="text;html=1;strokeColor=none;fillColor=none;spacing=5;spacingTop=-20;whiteSpace=wrap;overflow=hidden;rounded=0;" parent="WIyWlLk6GJQsqaUBKTNV-1" vertex="1">
                    <mxGeometry x="220" y="-530" width="250" height="40" as="geometry"/>
                </mxCell>
                <mxCell id="112" value="nuc_2" style="rounded=1;whiteSpace=wrap;html=1;container=0;" parent="WIyWlLk6GJQsqaUBKTNV-1" vertex="1">
                    <mxGeometry x="590" y="240" width="80" height="30" as="geometry"/>
                </mxCell>
                <mxCell id="113" value="flow_p" style="rounded=0;whiteSpace=wrap;html=1;fillColor=#dae8fc;strokeColor=#6c8ebf;container=0;" parent="WIyWlLk6GJQsqaUBKTNV-1" vertex="1">
                    <mxGeometry x="605" y="210" width="50" height="30" as="geometry"/>
                </mxCell>
                <mxCell id="114" value="nuc_mod" style="rounded=1;whiteSpace=wrap;html=1;container=0;" parent="WIyWlLk6GJQsqaUBKTNV-1" vertex="1">
                    <mxGeometry x="581" y="100" width="80" height="30" as="geometry"/>
                </mxCell>
                <mxCell id="115" value="flow_ub" style="rounded=0;whiteSpace=wrap;html=1;fillColor=#dae8fc;strokeColor=#6c8ebf;container=0;" parent="WIyWlLk6GJQsqaUBKTNV-1" vertex="1">
                    <mxGeometry x="596" y="130" width="50" height="30" as="geometry"/>
                </mxCell>
                <mxCell id="120" style="edgeStyle=none;html=1;entryX=0;entryY=0.75;entryDx=0;entryDy=0;exitX=0.75;exitY=0;exitDx=0;exitDy=0;" parent="WIyWlLk6GJQsqaUBKTNV-1" source="113" target="10" edge="1">
                    <mxGeometry relative="1" as="geometry">
                        <mxPoint x="855" y="227.5" as="sourcePoint"/>
                        <mxPoint x="785" y="170" as="targetPoint"/>
                    </mxGeometry>
                </mxCell>
                <mxCell id="121" style="edgeStyle=none;html=1;exitX=0.5;exitY=0;exitDx=0;exitDy=0;entryX=0.5;entryY=1;entryDx=0;entryDy=0;" parent="WIyWlLk6GJQsqaUBKTNV-1" source="113" target="115" edge="1">
                    <mxGeometry relative="1" as="geometry">
                        <mxPoint x="652.5" y="220" as="sourcePoint"/>
                        <mxPoint x="600" y="190" as="targetPoint"/>
                    </mxGeometry>
                </mxCell>
                <mxCell id="122" style="edgeStyle=none;html=1;exitX=0;exitY=0.5;exitDx=0;exitDy=0;entryX=1;entryY=1;entryDx=0;entryDy=0;" parent="WIyWlLk6GJQsqaUBKTNV-1" source="111" target="115" edge="1">
                    <mxGeometry relative="1" as="geometry">
                        <mxPoint x="640" y="220" as="sourcePoint"/>
                        <mxPoint x="631" y="170" as="targetPoint"/>
                    </mxGeometry>
                </mxCell>
            </root>
        </mxGraphModel>
    </diagram>
</mxfile>